<mxfile host="Electron" agent="Mozilla/5.0 (Windows NT 10.0; Win64; x64) AppleWebKit/537.36 (KHTML, like Gecko) draw.io/24.7.17 Chrome/128.0.6613.36 Electron/32.0.1 Safari/537.36" version="24.7.17">
  <diagram name="Page-1" id="oTrOYGLivgZ2FlojLhGs">
    <mxGraphModel dx="1569" dy="1171" grid="0" gridSize="10" guides="1" tooltips="1" connect="1" arrows="1" fold="1" page="1" pageScale="1" pageWidth="850" pageHeight="1100" math="0" shadow="0">
      <root>
        <mxCell id="0" />
        <mxCell id="1" parent="0" />
        <mxCell id="ScYjP6Ix7NkLDiKY-NXe-3" value="&lt;span style=&quot;font-size: 20px;&quot;&gt;Người chơi&lt;/span&gt;" style="swimlane;whiteSpace=wrap;html=1;startSize=30;" vertex="1" parent="1">
          <mxGeometry x="3" y="108" width="270" height="840" as="geometry" />
        </mxCell>
        <mxCell id="ScYjP6Ix7NkLDiKY-NXe-4" value="" style="ellipse;html=1;shape=startState;fillColor=#000000;strokeColor=#000000;" vertex="1" parent="ScYjP6Ix7NkLDiKY-NXe-3">
          <mxGeometry x="120" y="40" width="30" height="30" as="geometry" />
        </mxCell>
        <mxCell id="ScYjP6Ix7NkLDiKY-NXe-5" value="" style="edgeStyle=orthogonalEdgeStyle;html=1;verticalAlign=bottom;endArrow=open;endSize=8;strokeColor=#000000;rounded=0;" edge="1" parent="ScYjP6Ix7NkLDiKY-NXe-3" source="ScYjP6Ix7NkLDiKY-NXe-4">
          <mxGeometry relative="1" as="geometry">
            <mxPoint x="135" y="130" as="targetPoint" />
          </mxGeometry>
        </mxCell>
        <mxCell id="ScYjP6Ix7NkLDiKY-NXe-6" value="&lt;font style=&quot;font-size: 16px;&quot;&gt;Player nhấn phím điều hướng (W, A, S, D)&lt;/font&gt;" style="rounded=1;whiteSpace=wrap;html=1;arcSize=40;fontColor=#000000;fillColor=#FFFFFF;strokeColor=#000000;" vertex="1" parent="ScYjP6Ix7NkLDiKY-NXe-3">
          <mxGeometry x="30" y="130" width="200" height="70" as="geometry" />
        </mxCell>
        <mxCell id="ScYjP6Ix7NkLDiKY-NXe-7" value="" style="edgeStyle=orthogonalEdgeStyle;html=1;verticalAlign=bottom;endArrow=open;endSize=8;strokeColor=#000000;rounded=0;" edge="1" parent="ScYjP6Ix7NkLDiKY-NXe-3" source="ScYjP6Ix7NkLDiKY-NXe-6">
          <mxGeometry relative="1" as="geometry">
            <mxPoint x="350" y="165" as="targetPoint" />
          </mxGeometry>
        </mxCell>
        <mxCell id="ScYjP6Ix7NkLDiKY-NXe-8" value="&lt;span style=&quot;font-size: 20px;&quot;&gt;Hệ thống&lt;/span&gt;" style="swimlane;whiteSpace=wrap;html=1;startSize=30;" vertex="1" parent="1">
          <mxGeometry x="273" y="108" width="573" height="840" as="geometry" />
        </mxCell>
        <mxCell id="ScYjP6Ix7NkLDiKY-NXe-9" value="&lt;font style=&quot;font-size: 16px;&quot;&gt;Thay đổi vị trí nhân vật theo hướng đó&lt;/font&gt;" style="rounded=1;whiteSpace=wrap;html=1;arcSize=40;fontColor=#000000;fillColor=#ffffff;strokeColor=#000000;" vertex="1" parent="ScYjP6Ix7NkLDiKY-NXe-8">
          <mxGeometry x="80" y="140" width="180" height="50" as="geometry" />
        </mxCell>
        <mxCell id="ScYjP6Ix7NkLDiKY-NXe-10" value="" style="edgeStyle=orthogonalEdgeStyle;html=1;verticalAlign=bottom;endArrow=open;endSize=8;strokeColor=#000000;rounded=0;" edge="1" parent="ScYjP6Ix7NkLDiKY-NXe-8" source="ScYjP6Ix7NkLDiKY-NXe-9">
          <mxGeometry relative="1" as="geometry">
            <mxPoint x="170" y="280" as="targetPoint" />
          </mxGeometry>
        </mxCell>
        <mxCell id="ScYjP6Ix7NkLDiKY-NXe-17" value="&lt;font style=&quot;font-size: 16px;&quot;&gt;Va chạm với vật cản,&lt;/font&gt;&lt;div&gt;&lt;font style=&quot;font-size: 16px;&quot;&gt;Nhân vật bị khống chế&lt;/font&gt;&lt;/div&gt;" style="rhombus;whiteSpace=wrap;html=1;fontColor=#000000;fillColor=#FFFFFF;strokeColor=#000000;" vertex="1" parent="ScYjP6Ix7NkLDiKY-NXe-8">
          <mxGeometry x="46.25" y="380" width="247.5" height="110" as="geometry" />
        </mxCell>
        <mxCell id="ScYjP6Ix7NkLDiKY-NXe-18" value="&lt;font style=&quot;font-size: 16px;&quot;&gt;Không&lt;/font&gt;" style="edgeStyle=orthogonalEdgeStyle;html=1;align=left;verticalAlign=bottom;endArrow=open;endSize=8;strokeColor=#000000;rounded=0;" edge="1" source="ScYjP6Ix7NkLDiKY-NXe-17" parent="ScYjP6Ix7NkLDiKY-NXe-8" target="ScYjP6Ix7NkLDiKY-NXe-22">
          <mxGeometry x="-1" relative="1" as="geometry">
            <mxPoint x="420" y="335" as="targetPoint" />
          </mxGeometry>
        </mxCell>
        <mxCell id="ScYjP6Ix7NkLDiKY-NXe-19" value="&lt;font style=&quot;font-size: 16px;&quot;&gt;Có&lt;/font&gt;" style="edgeStyle=orthogonalEdgeStyle;html=1;align=left;verticalAlign=top;endArrow=open;endSize=8;strokeColor=#000000;rounded=0;" edge="1" parent="ScYjP6Ix7NkLDiKY-NXe-8" target="ScYjP6Ix7NkLDiKY-NXe-20">
          <mxGeometry x="-0.6001" y="10" relative="1" as="geometry">
            <mxPoint x="170" y="470" as="targetPoint" />
            <mxPoint x="170" y="490" as="sourcePoint" />
            <mxPoint as="offset" />
          </mxGeometry>
        </mxCell>
        <mxCell id="ScYjP6Ix7NkLDiKY-NXe-20" value="&lt;font style=&quot;font-size: 16px;&quot;&gt;Dừng di chuyển&lt;/font&gt;" style="rounded=1;whiteSpace=wrap;html=1;arcSize=40;fontColor=#000000;fillColor=#ffffff;strokeColor=#000000;" vertex="1" parent="ScYjP6Ix7NkLDiKY-NXe-8">
          <mxGeometry x="90" y="590" width="160" height="50" as="geometry" />
        </mxCell>
        <mxCell id="ScYjP6Ix7NkLDiKY-NXe-31" style="edgeStyle=orthogonalEdgeStyle;rounded=0;orthogonalLoop=1;jettySize=auto;html=1;entryX=1;entryY=0.5;entryDx=0;entryDy=0;" edge="1" parent="ScYjP6Ix7NkLDiKY-NXe-8" source="ScYjP6Ix7NkLDiKY-NXe-22" target="ScYjP6Ix7NkLDiKY-NXe-27">
          <mxGeometry relative="1" as="geometry">
            <Array as="points">
              <mxPoint x="465" y="745" />
            </Array>
          </mxGeometry>
        </mxCell>
        <mxCell id="ScYjP6Ix7NkLDiKY-NXe-22" value="&lt;font style=&quot;font-size: 16px;&quot;&gt;Tiếp tục di chuyển&lt;/font&gt;" style="rounded=1;whiteSpace=wrap;html=1;arcSize=40;fontColor=#000000;fillColor=#ffffff;strokeColor=#000000;" vertex="1" parent="ScYjP6Ix7NkLDiKY-NXe-8">
          <mxGeometry x="378" y="415" width="180" height="40" as="geometry" />
        </mxCell>
        <mxCell id="ScYjP6Ix7NkLDiKY-NXe-24" style="edgeStyle=orthogonalEdgeStyle;rounded=0;orthogonalLoop=1;jettySize=auto;html=1;exitX=0.5;exitY=1;exitDx=0;exitDy=0;" edge="1" parent="ScYjP6Ix7NkLDiKY-NXe-8" source="ScYjP6Ix7NkLDiKY-NXe-22" target="ScYjP6Ix7NkLDiKY-NXe-22">
          <mxGeometry relative="1" as="geometry" />
        </mxCell>
        <mxCell id="ScYjP6Ix7NkLDiKY-NXe-27" value="" style="ellipse;html=1;shape=endState;fillColor=#000000;strokeColor=#000000;" vertex="1" parent="ScYjP6Ix7NkLDiKY-NXe-8">
          <mxGeometry x="155" y="730" width="30" height="30" as="geometry" />
        </mxCell>
        <mxCell id="ScYjP6Ix7NkLDiKY-NXe-21" value="" style="edgeStyle=orthogonalEdgeStyle;html=1;verticalAlign=bottom;endArrow=open;endSize=8;strokeColor=#000000;rounded=0;" edge="1" source="ScYjP6Ix7NkLDiKY-NXe-20" parent="ScYjP6Ix7NkLDiKY-NXe-8" target="ScYjP6Ix7NkLDiKY-NXe-27">
          <mxGeometry relative="1" as="geometry">
            <mxPoint x="170" y="630" as="targetPoint" />
          </mxGeometry>
        </mxCell>
        <mxCell id="ScYjP6Ix7NkLDiKY-NXe-28" value="&lt;font style=&quot;font-size: 16px;&quot;&gt;Cập nhật animation&lt;/font&gt;" style="rounded=1;whiteSpace=wrap;html=1;arcSize=40;fontColor=#000000;fillColor=#FFFFFF;strokeColor=#000000;" vertex="1" parent="ScYjP6Ix7NkLDiKY-NXe-8">
          <mxGeometry x="80" y="280" width="180" height="50" as="geometry" />
        </mxCell>
        <mxCell id="ScYjP6Ix7NkLDiKY-NXe-29" value="" style="edgeStyle=orthogonalEdgeStyle;html=1;verticalAlign=bottom;endArrow=open;endSize=8;strokeColor=#000000;rounded=0;" edge="1" source="ScYjP6Ix7NkLDiKY-NXe-28" parent="ScYjP6Ix7NkLDiKY-NXe-8">
          <mxGeometry relative="1" as="geometry">
            <mxPoint x="170" y="380" as="targetPoint" />
          </mxGeometry>
        </mxCell>
      </root>
    </mxGraphModel>
  </diagram>
</mxfile>
